<mxfile host="app.diagrams.net" agent="Mozilla/5.0 (Windows NT 10.0; Win64; x64; rv:132.0) Gecko/20100101 Firefox/132.0" version="24.8.4">
  <diagram id="C5RBs43oDa-KdzZeNtuy" name="Page-1">
    <mxGraphModel dx="607" dy="1493" grid="1" gridSize="10" guides="1" tooltips="1" connect="1" arrows="1" fold="1" page="1" pageScale="1" pageWidth="827" pageHeight="1169" math="0" shadow="0">
      <root>
        <mxCell id="WIyWlLk6GJQsqaUBKTNV-0" />
        <mxCell id="WIyWlLk6GJQsqaUBKTNV-1" parent="WIyWlLk6GJQsqaUBKTNV-0" />
        <mxCell id="kyadtY9fKTfbmcxBWnY2-20" style="edgeStyle=orthogonalEdgeStyle;rounded=0;orthogonalLoop=1;jettySize=auto;html=1;exitX=1;exitY=0.5;exitDx=0;exitDy=0;" edge="1" parent="WIyWlLk6GJQsqaUBKTNV-1" source="kyadtY9fKTfbmcxBWnY2-0" target="kyadtY9fKTfbmcxBWnY2-17">
          <mxGeometry relative="1" as="geometry" />
        </mxCell>
        <mxCell id="kyadtY9fKTfbmcxBWnY2-0" value="FILIAL" style="rounded=0;whiteSpace=wrap;html=1;" vertex="1" parent="WIyWlLk6GJQsqaUBKTNV-1">
          <mxGeometry x="80" y="90" width="120" height="60" as="geometry" />
        </mxCell>
        <mxCell id="kyadtY9fKTfbmcxBWnY2-3" value="" style="ellipse;whiteSpace=wrap;html=1;aspect=fixed;" vertex="1" parent="WIyWlLk6GJQsqaUBKTNV-1">
          <mxGeometry x="80" y="20" width="10" height="10" as="geometry" />
        </mxCell>
        <mxCell id="kyadtY9fKTfbmcxBWnY2-10" value="" style="edgeStyle=orthogonalEdgeStyle;rounded=0;orthogonalLoop=1;jettySize=auto;html=1;" edge="1" parent="WIyWlLk6GJQsqaUBKTNV-1" source="kyadtY9fKTfbmcxBWnY2-6" target="kyadtY9fKTfbmcxBWnY2-0">
          <mxGeometry relative="1" as="geometry" />
        </mxCell>
        <mxCell id="kyadtY9fKTfbmcxBWnY2-6" value="" style="ellipse;whiteSpace=wrap;html=1;aspect=fixed;shadow=0;fillColor=#000000;" vertex="1" parent="WIyWlLk6GJQsqaUBKTNV-1">
          <mxGeometry x="135" y="20" width="10" height="10" as="geometry" />
        </mxCell>
        <mxCell id="kyadtY9fKTfbmcxBWnY2-7" value="" style="ellipse;whiteSpace=wrap;html=1;aspect=fixed;" vertex="1" parent="WIyWlLk6GJQsqaUBKTNV-1">
          <mxGeometry x="190" y="20" width="10" height="10" as="geometry" />
        </mxCell>
        <mxCell id="kyadtY9fKTfbmcxBWnY2-12" style="edgeStyle=orthogonalEdgeStyle;rounded=0;orthogonalLoop=1;jettySize=auto;html=1;exitX=0.5;exitY=1;exitDx=0;exitDy=0;entryX=0.965;entryY=0.029;entryDx=0;entryDy=0;entryPerimeter=0;" edge="1" parent="WIyWlLk6GJQsqaUBKTNV-1" source="kyadtY9fKTfbmcxBWnY2-7" target="kyadtY9fKTfbmcxBWnY2-0">
          <mxGeometry relative="1" as="geometry" />
        </mxCell>
        <mxCell id="kyadtY9fKTfbmcxBWnY2-13" style="edgeStyle=orthogonalEdgeStyle;rounded=0;orthogonalLoop=1;jettySize=auto;html=1;exitX=0.5;exitY=1;exitDx=0;exitDy=0;entryX=0.048;entryY=0.037;entryDx=0;entryDy=0;entryPerimeter=0;" edge="1" parent="WIyWlLk6GJQsqaUBKTNV-1" source="kyadtY9fKTfbmcxBWnY2-3" target="kyadtY9fKTfbmcxBWnY2-0">
          <mxGeometry relative="1" as="geometry">
            <Array as="points">
              <mxPoint x="85" y="60" />
              <mxPoint x="86" y="60" />
            </Array>
          </mxGeometry>
        </mxCell>
        <mxCell id="kyadtY9fKTfbmcxBWnY2-14" value="&lt;font style=&quot;font-size: 6px;&quot;&gt;COD_FILIAL&lt;/font&gt;" style="text;strokeColor=none;align=center;fillColor=none;html=1;verticalAlign=middle;whiteSpace=wrap;rounded=0;" vertex="1" parent="WIyWlLk6GJQsqaUBKTNV-1">
          <mxGeometry x="125" width="35" height="20" as="geometry" />
        </mxCell>
        <mxCell id="kyadtY9fKTfbmcxBWnY2-15" value="&lt;font style=&quot;font-size: 6px;&quot;&gt;NOME_FILIAL&lt;/font&gt;" style="text;html=1;align=center;verticalAlign=middle;resizable=0;points=[];autosize=1;strokeColor=none;fillColor=none;" vertex="1" parent="WIyWlLk6GJQsqaUBKTNV-1">
          <mxGeometry x="170" y="-5" width="60" height="30" as="geometry" />
        </mxCell>
        <mxCell id="kyadtY9fKTfbmcxBWnY2-16" value="&lt;font style=&quot;font-size: 6px;&quot;&gt;END_FILIAL&lt;/font&gt;" style="text;html=1;align=center;verticalAlign=middle;resizable=0;points=[];autosize=1;strokeColor=none;fillColor=none;" vertex="1" parent="WIyWlLk6GJQsqaUBKTNV-1">
          <mxGeometry x="55" y="-5" width="60" height="30" as="geometry" />
        </mxCell>
        <mxCell id="kyadtY9fKTfbmcxBWnY2-19" value="" style="edgeStyle=orthogonalEdgeStyle;rounded=0;orthogonalLoop=1;jettySize=auto;html=1;" edge="1" parent="WIyWlLk6GJQsqaUBKTNV-1" source="kyadtY9fKTfbmcxBWnY2-17" target="kyadtY9fKTfbmcxBWnY2-18">
          <mxGeometry relative="1" as="geometry" />
        </mxCell>
        <mxCell id="kyadtY9fKTfbmcxBWnY2-17" value="FATO" style="rounded=0;whiteSpace=wrap;html=1;" vertex="1" parent="WIyWlLk6GJQsqaUBKTNV-1">
          <mxGeometry x="270" y="90" width="120" height="60" as="geometry" />
        </mxCell>
        <mxCell id="kyadtY9fKTfbmcxBWnY2-18" value="" style="ellipse;whiteSpace=wrap;html=1;rounded=0;" vertex="1" parent="WIyWlLk6GJQsqaUBKTNV-1">
          <mxGeometry x="325" y="20" width="10" height="10" as="geometry" />
        </mxCell>
      </root>
    </mxGraphModel>
  </diagram>
</mxfile>
